<mxfile host="65bd71144e">
    <diagram id="btSCIp_5RCuiRVIZ8Ie1" name="Page-2">
        <mxGraphModel dx="915" dy="647" grid="1" gridSize="10" guides="1" tooltips="1" connect="1" arrows="1" fold="1" page="1" pageScale="1" pageWidth="1654" pageHeight="1169" math="0" shadow="0">
            <root>
                <mxCell id="0"/>
                <mxCell id="1" parent="0"/>
                <mxCell id="UH1KSIQPEYG2ORBVU3AM-1" value="&lt;font color=&quot;#0d0c0c&quot;&gt;AWS Cloud&lt;/font&gt;" style="sketch=0;outlineConnect=0;html=1;whiteSpace=wrap;fontSize=12;fontStyle=0;shape=mxgraph.aws4.group;grIcon=mxgraph.aws4.group_aws_cloud;strokeColor=#36393d;fillColor=#f9f7ed;verticalAlign=top;align=left;spacingLeft=30;dashed=0;" parent="1" vertex="1">
                    <mxGeometry x="200" y="80" width="1000" height="600" as="geometry"/>
                </mxCell>
                <mxCell id="UH1KSIQPEYG2ORBVU3AM-2" value="VPC" style="points=[[0,0],[0.25,0],[0.5,0],[0.75,0],[1,0],[1,0.25],[1,0.5],[1,0.75],[1,1],[0.75,1],[0.5,1],[0.25,1],[0,1],[0,0.75],[0,0.5],[0,0.25]];outlineConnect=0;gradientColor=none;html=1;whiteSpace=wrap;fontSize=12;fontStyle=0;container=1;pointerEvents=0;collapsible=0;recursiveResize=0;shape=mxgraph.aws4.group;grIcon=mxgraph.aws4.group_vpc;strokeColor=#248814;fillColor=none;verticalAlign=top;align=left;spacingLeft=30;fontColor=#AAB7B8;dashed=0;" parent="1" vertex="1">
                    <mxGeometry x="240" y="120" width="920" height="520" as="geometry"/>
                </mxCell>
                <mxCell id="UH1KSIQPEYG2ORBVU3AM-6" value="Public subnet" style="points=[[0,0],[0.25,0],[0.5,0],[0.75,0],[1,0],[1,0.25],[1,0.5],[1,0.75],[1,1],[0.75,1],[0.5,1],[0.25,1],[0,1],[0,0.75],[0,0.5],[0,0.25]];outlineConnect=0;gradientColor=none;html=1;whiteSpace=wrap;fontSize=12;fontStyle=0;container=1;pointerEvents=0;collapsible=0;recursiveResize=0;shape=mxgraph.aws4.group;grIcon=mxgraph.aws4.group_security_group;grStroke=0;strokeColor=#248814;fillColor=#E9F3E6;verticalAlign=top;align=left;spacingLeft=30;fontColor=#248814;dashed=0;" parent="UH1KSIQPEYG2ORBVU3AM-2" vertex="1">
                    <mxGeometry x="40" y="40" width="400" height="120" as="geometry"/>
                </mxCell>
                <mxCell id="UH1KSIQPEYG2ORBVU3AM-12" value="&lt;font color=&quot;#050505&quot;&gt;EC2&lt;/font&gt;" style="text;html=1;align=center;verticalAlign=middle;resizable=0;points=[];autosize=1;strokeColor=none;fillColor=none;" parent="UH1KSIQPEYG2ORBVU3AM-6" vertex="1">
                    <mxGeometry x="144" y="88" width="50" height="30" as="geometry"/>
                </mxCell>
                <mxCell id="UH1KSIQPEYG2ORBVU3AM-9" value="Private subnet" style="points=[[0,0],[0.25,0],[0.5,0],[0.75,0],[1,0],[1,0.25],[1,0.5],[1,0.75],[1,1],[0.75,1],[0.5,1],[0.25,1],[0,1],[0,0.75],[0,0.5],[0,0.25]];outlineConnect=0;gradientColor=none;html=1;whiteSpace=wrap;fontSize=12;fontStyle=0;container=1;pointerEvents=0;collapsible=0;recursiveResize=0;shape=mxgraph.aws4.group;grIcon=mxgraph.aws4.group_security_group;grStroke=0;strokeColor=#147EBA;fillColor=#E6F2F8;verticalAlign=top;align=left;spacingLeft=30;fontColor=#147EBA;dashed=0;" parent="UH1KSIQPEYG2ORBVU3AM-2" vertex="1">
                    <mxGeometry x="40" y="200" width="400" height="280" as="geometry"/>
                </mxCell>
                <mxCell id="UH1KSIQPEYG2ORBVU3AM-15" value="SOURCE RDS" style="text;html=1;align=center;verticalAlign=middle;resizable=0;points=[];autosize=1;strokeColor=none;fillColor=none;fontColor=#050505;" parent="UH1KSIQPEYG2ORBVU3AM-9" vertex="1">
                    <mxGeometry x="119" y="235" width="100" height="30" as="geometry"/>
                </mxCell>
                <mxCell id="UH1KSIQPEYG2ORBVU3AM-20" value="" style="sketch=0;outlineConnect=0;fontColor=#232F3E;gradientColor=none;fillColor=#4D27AA;strokeColor=none;dashed=0;verticalLabelPosition=bottom;verticalAlign=top;align=center;html=1;fontSize=12;fontStyle=0;aspect=fixed;pointerEvents=1;shape=mxgraph.aws4.endpoints;" parent="UH1KSIQPEYG2ORBVU3AM-9" vertex="1">
                    <mxGeometry x="244" y="55" width="50" height="50" as="geometry"/>
                </mxCell>
                <mxCell id="UH1KSIQPEYG2ORBVU3AM-22" value="VPC Endpoints" style="text;html=1;align=center;verticalAlign=middle;resizable=0;points=[];autosize=1;strokeColor=none;fillColor=none;fontColor=#050505;" parent="UH1KSIQPEYG2ORBVU3AM-9" vertex="1">
                    <mxGeometry x="219" y="110" width="100" height="30" as="geometry"/>
                </mxCell>
                <mxCell id="UH1KSIQPEYG2ORBVU3AM-10" value="Private subnet" style="points=[[0,0],[0.25,0],[0.5,0],[0.75,0],[1,0],[1,0.25],[1,0.5],[1,0.75],[1,1],[0.75,1],[0.5,1],[0.25,1],[0,1],[0,0.75],[0,0.5],[0,0.25]];outlineConnect=0;gradientColor=none;html=1;whiteSpace=wrap;fontSize=12;fontStyle=0;container=1;pointerEvents=0;collapsible=0;recursiveResize=0;shape=mxgraph.aws4.group;grIcon=mxgraph.aws4.group_security_group;grStroke=0;strokeColor=#147EBA;fillColor=#E6F2F8;verticalAlign=top;align=left;spacingLeft=30;fontColor=#147EBA;dashed=0;" parent="UH1KSIQPEYG2ORBVU3AM-2" vertex="1">
                    <mxGeometry x="480" y="200" width="400" height="280" as="geometry"/>
                </mxCell>
                <mxCell id="UH1KSIQPEYG2ORBVU3AM-16" value="Target RDS" style="text;html=1;align=center;verticalAlign=middle;resizable=0;points=[];autosize=1;strokeColor=none;fillColor=none;fontColor=#050505;" parent="UH1KSIQPEYG2ORBVU3AM-10" vertex="1">
                    <mxGeometry x="155" y="235" width="90" height="30" as="geometry"/>
                </mxCell>
                <mxCell id="UH1KSIQPEYG2ORBVU3AM-21" value="" style="sketch=0;outlineConnect=0;fontColor=#232F3E;gradientColor=none;fillColor=#4D27AA;strokeColor=none;dashed=0;verticalLabelPosition=bottom;verticalAlign=top;align=center;html=1;fontSize=12;fontStyle=0;aspect=fixed;pointerEvents=1;shape=mxgraph.aws4.endpoints;" parent="UH1KSIQPEYG2ORBVU3AM-10" vertex="1">
                    <mxGeometry x="82" y="55" width="50" height="50" as="geometry"/>
                </mxCell>
                <mxCell id="UH1KSIQPEYG2ORBVU3AM-18" value="DMS" style="text;html=1;align=center;verticalAlign=middle;resizable=0;points=[];autosize=1;strokeColor=none;fillColor=none;fontColor=#050505;" parent="UH1KSIQPEYG2ORBVU3AM-2" vertex="1">
                    <mxGeometry x="435" y="340" width="50" height="30" as="geometry"/>
                </mxCell>
                <mxCell id="UH1KSIQPEYG2ORBVU3AM-7" value="Public subnet" style="points=[[0,0],[0.25,0],[0.5,0],[0.75,0],[1,0],[1,0.25],[1,0.5],[1,0.75],[1,1],[0.75,1],[0.5,1],[0.25,1],[0,1],[0,0.75],[0,0.5],[0,0.25]];outlineConnect=0;gradientColor=none;html=1;whiteSpace=wrap;fontSize=12;fontStyle=0;container=1;pointerEvents=0;collapsible=0;recursiveResize=0;shape=mxgraph.aws4.group;grIcon=mxgraph.aws4.group_security_group;grStroke=0;strokeColor=#248814;fillColor=#E9F3E6;verticalAlign=top;align=left;spacingLeft=30;fontColor=#248814;dashed=0;" parent="1" vertex="1">
                    <mxGeometry x="720" y="160" width="400" height="120" as="geometry"/>
                </mxCell>
                <mxCell id="UH1KSIQPEYG2ORBVU3AM-28" style="edgeStyle=none;html=1;strokeColor=#000000;strokeWidth=4;fontColor=#050505;" parent="1" source="UH1KSIQPEYG2ORBVU3AM-11" target="UH1KSIQPEYG2ORBVU3AM-14" edge="1">
                    <mxGeometry relative="1" as="geometry">
                        <Array as="points">
                            <mxPoint x="920" y="210"/>
                        </Array>
                    </mxGeometry>
                </mxCell>
                <mxCell id="UH1KSIQPEYG2ORBVU3AM-11" value="" style="sketch=0;points=[[0,0,0],[0.25,0,0],[0.5,0,0],[0.75,0,0],[1,0,0],[0,1,0],[0.25,1,0],[0.5,1,0],[0.75,1,0],[1,1,0],[0,0.25,0],[0,0.5,0],[0,0.75,0],[1,0.25,0],[1,0.5,0],[1,0.75,0]];outlineConnect=0;fontColor=#232F3E;gradientColor=#F78E04;gradientDirection=north;fillColor=#D05C17;strokeColor=#ffffff;dashed=0;verticalLabelPosition=bottom;verticalAlign=top;align=center;html=1;fontSize=12;fontStyle=0;aspect=fixed;shape=mxgraph.aws4.resourceIcon;resIcon=mxgraph.aws4.ec2;" parent="1" vertex="1">
                    <mxGeometry x="410" y="170" width="78" height="78" as="geometry"/>
                </mxCell>
                <mxCell id="UH1KSIQPEYG2ORBVU3AM-29" value="" style="edgeStyle=none;html=1;strokeColor=#000000;strokeWidth=4;fontColor=#050505;exitX=0.75;exitY=0;exitDx=0;exitDy=0;exitPerimeter=0;" parent="1" source="UH1KSIQPEYG2ORBVU3AM-13" target="UH1KSIQPEYG2ORBVU3AM-20" edge="1">
                    <mxGeometry relative="1" as="geometry">
                        <mxPoint x="568" y="509" as="targetPoint"/>
                        <Array as="points">
                            <mxPoint x="470" y="400"/>
                        </Array>
                    </mxGeometry>
                </mxCell>
                <mxCell id="UH1KSIQPEYG2ORBVU3AM-13" value="" style="sketch=0;points=[[0,0,0],[0.25,0,0],[0.5,0,0],[0.75,0,0],[1,0,0],[0,1,0],[0.25,1,0],[0.5,1,0],[0.75,1,0],[1,1,0],[0,0.25,0],[0,0.5,0],[0,0.75,0],[1,0.25,0],[1,0.5,0],[1,0.75,0]];outlineConnect=0;fontColor=#232F3E;gradientColor=#4D72F3;gradientDirection=north;fillColor=#3334B9;strokeColor=#ffffff;dashed=0;verticalLabelPosition=bottom;verticalAlign=top;align=center;html=1;fontSize=12;fontStyle=0;aspect=fixed;shape=mxgraph.aws4.resourceIcon;resIcon=mxgraph.aws4.rds;" parent="1" vertex="1">
                    <mxGeometry x="410" y="470" width="78" height="78" as="geometry"/>
                </mxCell>
                <mxCell id="UH1KSIQPEYG2ORBVU3AM-14" value="" style="sketch=0;points=[[0,0,0],[0.25,0,0],[0.5,0,0],[0.75,0,0],[1,0,0],[0,1,0],[0.25,1,0],[0.5,1,0],[0.75,1,0],[1,1,0],[0,0.25,0],[0,0.5,0],[0,0.75,0],[1,0.25,0],[1,0.5,0],[1,0.75,0]];outlineConnect=0;fontColor=#232F3E;gradientColor=#4D72F3;gradientDirection=north;fillColor=#3334B9;strokeColor=#ffffff;dashed=0;verticalLabelPosition=bottom;verticalAlign=top;align=center;html=1;fontSize=12;fontStyle=0;aspect=fixed;shape=mxgraph.aws4.resourceIcon;resIcon=mxgraph.aws4.rds;" parent="1" vertex="1">
                    <mxGeometry x="881" y="470" width="78" height="78" as="geometry"/>
                </mxCell>
                <mxCell id="UH1KSIQPEYG2ORBVU3AM-31" value="" style="edgeStyle=none;html=1;strokeColor=#000000;strokeWidth=4;fontColor=#050505;" parent="1" source="UH1KSIQPEYG2ORBVU3AM-17" target="UH1KSIQPEYG2ORBVU3AM-21" edge="1">
                    <mxGeometry relative="1" as="geometry"/>
                </mxCell>
                <mxCell id="UH1KSIQPEYG2ORBVU3AM-17" value="" style="sketch=0;points=[[0,0,0],[0.25,0,0],[0.5,0,0],[0.75,0,0],[1,0,0],[0,1,0],[0.25,1,0],[0.5,1,0],[0.75,1,0],[1,1,0],[0,0.25,0],[0,0.5,0],[0,0.75,0],[1,0.25,0],[1,0.5,0],[1,0.75,0]];outlineConnect=0;fontColor=#232F3E;gradientColor=#4D72F3;gradientDirection=north;fillColor=#3334B9;strokeColor=#ffffff;dashed=0;verticalLabelPosition=bottom;verticalAlign=top;align=center;html=1;fontSize=12;fontStyle=0;aspect=fixed;shape=mxgraph.aws4.resourceIcon;resIcon=mxgraph.aws4.database_migration_service;" parent="1" vertex="1">
                    <mxGeometry x="650" y="350" width="100" height="100" as="geometry"/>
                </mxCell>
                <mxCell id="UH1KSIQPEYG2ORBVU3AM-23" value="VPC Endpoints" style="text;html=1;align=center;verticalAlign=middle;resizable=0;points=[];autosize=1;strokeColor=none;fillColor=none;fontColor=#050505;" parent="1" vertex="1">
                    <mxGeometry x="800" y="440" width="100" height="30" as="geometry"/>
                </mxCell>
                <mxCell id="UH1KSIQPEYG2ORBVU3AM-24" value="" style="edgeStyle=none;html=1;fontColor=#050505;strokeColor=#000000;strokeWidth=4;" parent="1" source="UH1KSIQPEYG2ORBVU3AM-12" target="UH1KSIQPEYG2ORBVU3AM-13" edge="1">
                    <mxGeometry relative="1" as="geometry">
                        <Array as="points">
                            <mxPoint x="449" y="310"/>
                        </Array>
                    </mxGeometry>
                </mxCell>
                <mxCell id="UH1KSIQPEYG2ORBVU3AM-30" value="" style="edgeStyle=none;html=1;strokeColor=#000000;strokeWidth=4;fontColor=#050505;entryX=0;entryY=0.5;entryDx=0;entryDy=0;entryPerimeter=0;" parent="1" source="UH1KSIQPEYG2ORBVU3AM-20" target="UH1KSIQPEYG2ORBVU3AM-17" edge="1">
                    <mxGeometry relative="1" as="geometry">
                        <mxPoint x="650" y="390" as="targetPoint"/>
                    </mxGeometry>
                </mxCell>
                <mxCell id="UH1KSIQPEYG2ORBVU3AM-32" style="edgeStyle=none;html=1;entryX=1.01;entryY=1.044;entryDx=0;entryDy=0;entryPerimeter=0;strokeColor=#000000;strokeWidth=4;fontColor=#050505;" parent="1" source="UH1KSIQPEYG2ORBVU3AM-21" target="UH1KSIQPEYG2ORBVU3AM-23" edge="1">
                    <mxGeometry relative="1" as="geometry">
                        <Array as="points">
                            <mxPoint x="900" y="400"/>
                        </Array>
                    </mxGeometry>
                </mxCell>
            </root>
        </mxGraphModel>
    </diagram>
</mxfile>
